<svg xmlns="http://www.w3.org/2000/svg" viewBox="0 0 100 100">
  <defs>
    <linearGradient id="brainGradient" x1="0%" y1="0%" x2="100%" y2="100%">
      <stop offset="0%" style="stop-color:#319795"/>
      <stop offset="100%" style="stop-color:#2c7a7b"/>
    </linearGradient>
  </defs>
  <circle cx="50" cy="50" r="48" fill="url(#brainGradient)"/>
  <path d="M50 20 C35 20 25 35 25 50 C25 65 35 80 50 80 C65 80 75 65 75 50 C75 35 65 20 50 20 M50 25 C60 25 70 35 70 50 C70 65 60 75 50 75 C40 75 30 65 30 50 C30 35 40 25 50 25" fill="none" stroke="white" stroke-width="2" opacity="0.3"/>
  <path d="M40 40 C40 30 50 25 60 30 M35 50 C30 45 30 35 40 35 M65 50 C70 45 70 35 60 35 M35 55 C30 60 30 70 40 70 M65 55 C70 60 70 70 60 70 M45 45 L45 55 M55 45 L55 55" fill="none" stroke="white" stroke-width="3" stroke-linecap="round"/>
  <circle cx="42" cy="42" r="3" fill="white" opacity="0.8"/>
  <circle cx="58" cy="45" r="2.5" fill="white" opacity="0.8"/>
  <circle cx="50" cy="60" r="2" fill="white" opacity="0.8"/>
</svg>
